<svg
                width="20"
                height="20"
                viewBox="0 0 31 32"
                fill="none"
                xmlns="http://www.w3.org/2000/svg"
              >
                <path
                  d="M15.4427 22.2253C14.7762 22.2253 14.137 21.9605 13.6657 21.4892C13.1945 21.0179 12.9297 20.3787 12.9297 19.7122C12.9297 18.3175 14.048 17.1992 15.4427 17.1992C16.1092 17.1992 16.7484 17.464 17.2197 17.9353C17.691 18.4065 17.9557 19.0457 17.9557 19.7122C17.9557 20.3787 17.691 21.0179 17.2197 21.4892C16.7484 21.9605 16.1092 22.2253 15.4427 22.2253ZM22.9818 25.9948V13.4297H7.90365V25.9948H22.9818ZM22.9818 10.9167C23.6483 10.9167 24.2875 11.1814 24.7587 11.6527C25.23 12.124 25.4948 12.7632 25.4948 13.4297V25.9948C25.4948 26.6613 25.23 27.3005 24.7587 27.7718C24.2875 28.243 23.6483 28.5078 22.9818 28.5078H7.90365C7.23715 28.5078 6.59795 28.243 6.12667 27.7718C5.65539 27.3005 5.39063 26.6613 5.39062 25.9948V13.4297C5.39062 12.035 6.50892 10.9167 7.90365 10.9167H9.16016V8.40365C9.16016 6.73741 9.82207 5.13942 11.0003 3.96121C12.1785 2.783 13.7765 2.12109 15.4427 2.12109C16.2677 2.12109 17.0847 2.2836 17.8469 2.59932C18.6092 2.91505 19.3018 3.37782 19.8851 3.96121C20.4685 4.5446 20.9313 5.23718 21.247 5.99942C21.5628 6.76165 21.7253 7.57861 21.7253 8.40365V10.9167H22.9818ZM15.4427 4.63411C14.443 4.63411 13.4842 5.03126 12.7772 5.73818C12.0703 6.44511 11.6732 7.4039 11.6732 8.40365V10.9167H19.2122V8.40365C19.2122 7.4039 18.8151 6.44511 18.1082 5.73818C17.4012 5.03126 16.4424 4.63411 15.4427 4.63411Z"
                  fill="#313131"
                />
              </svg>