<svg xmlns="http://www.w3.org/2000/svg" width="110" height="54" viewBox="0 0 110 54" fill="none">
  <mask id="mask0_1426_20287" style="mask-type:luminance" maskUnits="userSpaceOnUse" x="0" y="0" width="104" height="47">
    <path d="M19.6381 20.0041V28.3066H0.0078125V20.0041H19.6381ZM56.8296 0.0086922H57.1339H59.2204H68.5747V46.4676H60.2723V12.5536L52.9348 28.3761L44.6324 28.324L37.2949 12.5276V46.4676H28.9925V0.0086922H38.3556H39.3988H40.7376L48.7793 15.3356L56.8209 0.0086922H56.8296ZM78.416 38.1565H95.0383V8.30245H78.416V38.1565ZM95.0383 46.4589H70.1135V0H103.341V46.4589H95.0383ZM0.0165047 30.0018H8.31895V46.5459H0.0165047V30.0018ZM0.0165047 0H27.445V8.30245H8.32765V18.3089H0.0251969V0H0.0165047Z" fill="white"/>
  </mask>
  <g mask="url(#mask0_1426_20287)">
    <path d="M103.332 0H0.0078125V46.5459H103.332V0Z" fill="url(#paint0_linear_1426_20287)"/>
  </g>
  <path d="M104.488 0.695492L108.635 3.34706L104.488 5.98993V6.68543H109.444V5.98993H105.81L109.444 3.66003V3.0167L105.818 0.695492H109.444V0H104.488V0.695492ZM105.645 7.69389C105.184 7.86776 104.862 8.16335 104.68 8.57195C104.558 8.85884 104.497 9.21528 104.497 9.64127V11.7451C104.497 12.1711 104.558 12.5276 104.68 12.8145C104.862 13.2318 105.184 13.5186 105.645 13.6925C106.044 13.8403 106.488 13.9186 106.966 13.9186C107.444 13.9186 107.887 13.8403 108.287 13.6925C108.739 13.5273 109.061 13.2318 109.252 12.8145C109.383 12.5276 109.444 12.1711 109.444 11.7451V9.64127C109.444 9.21528 109.383 8.85884 109.252 8.57195C109.061 8.15466 108.748 7.85907 108.287 7.69389C107.887 7.5461 107.444 7.47655 106.966 7.47655C106.488 7.47655 106.044 7.5461 105.645 7.69389ZM107.94 8.27637C108.522 8.45024 108.818 8.90231 108.818 9.63258V11.7712C108.818 12.5015 108.522 12.9536 107.94 13.1274C107.688 13.197 107.366 13.2318 106.966 13.2318C106.566 13.2318 106.244 13.197 105.992 13.1274C105.41 12.9536 105.123 12.5015 105.123 11.7712V9.63258C105.123 8.90231 105.41 8.45024 105.992 8.27637C106.244 8.20682 106.566 8.17204 106.966 8.17204C107.366 8.17204 107.688 8.20682 107.94 8.27637ZM105.871 15.2052C105.375 15.4052 105.132 15.8399 105.132 16.5093V18.6479C105.132 19.3782 105.419 19.8302 106.001 20.0041C106.253 20.0737 106.575 20.0997 106.975 20.0997C107.375 20.0997 107.696 20.065 107.94 20.0041C108.522 19.8302 108.818 19.3869 108.818 18.6653V16.5093C108.818 15.8399 108.566 15.3965 108.07 15.2052V14.5097C108.174 14.5445 108.253 14.5619 108.296 14.5793C108.757 14.7531 109.079 15.0487 109.261 15.4573C109.383 15.7442 109.444 16.1007 109.444 16.5267V18.6305C109.444 19.0565 109.383 19.4129 109.261 19.6998C109.079 20.1171 108.757 20.404 108.305 20.5779C107.905 20.7257 107.462 20.8039 106.983 20.8039C106.505 20.8039 106.062 20.7344 105.662 20.5779C105.21 20.4127 104.888 20.1171 104.697 19.6998C104.567 19.4129 104.506 19.0565 104.506 18.6305V16.5267C104.506 16.1007 104.567 15.7442 104.697 15.4573C104.888 15.0313 105.21 14.7358 105.662 14.5793C105.714 14.5619 105.784 14.5358 105.879 14.5097V15.2052H105.871ZM109.444 21.9167V21.2125H108.748V21.9167H109.444Z" fill="url(#paint1_linear_1426_20287)"/>
  <path d="M103.168 51.2565C103.072 51.0479 102.924 50.8827 102.733 50.761C102.437 50.5871 101.977 50.4915 101.333 50.4915H99.0295C98.8122 50.4915 98.6383 50.4741 98.5079 50.448C98.2992 50.3958 98.1515 50.3089 98.0558 50.1959C97.9602 50.0655 97.8993 49.9264 97.8906 49.7525C97.8906 49.5612 97.9515 49.4048 98.0558 49.283C98.1515 49.1613 98.2906 49.0831 98.4818 49.0483C98.5601 49.0309 98.7165 49.0222 98.9513 49.0222H101.464C101.698 49.0222 101.855 49.0309 101.933 49.0483C102.124 49.0918 102.264 49.17 102.359 49.283C102.464 49.4048 102.516 49.5612 102.524 49.7438H103.211C103.211 49.5352 103.168 49.3352 103.081 49.1439C102.994 48.9527 102.846 48.7875 102.637 48.6484C102.377 48.4745 101.907 48.3876 101.246 48.3876H99.1947C98.5253 48.3876 98.0558 48.4745 97.795 48.6484C97.5951 48.7875 97.4473 48.9527 97.3603 49.1439C97.2734 49.3265 97.2299 49.5265 97.2299 49.7438C97.2299 49.9698 97.2734 50.1785 97.3603 50.3611C97.456 50.5697 97.6038 50.7349 97.8037 50.8566C98.0906 51.0305 98.5601 51.1261 99.2034 51.1261H101.507C101.733 51.1261 101.898 51.1435 102.02 51.1783C102.229 51.2304 102.377 51.3174 102.472 51.4304C102.568 51.5521 102.629 51.6999 102.629 51.8738C102.629 52.065 102.568 52.2215 102.464 52.3432C102.368 52.4562 102.22 52.5345 102.038 52.5779C101.959 52.5953 101.803 52.604 101.568 52.604H99.0469C98.8122 52.604 98.6644 52.5953 98.5861 52.5779C98.3949 52.5345 98.2558 52.4562 98.1601 52.3432C98.0558 52.2128 97.995 52.065 97.9863 51.8738H97.3082C97.3082 52.0911 97.3516 52.2911 97.4386 52.4736C97.5255 52.6649 97.6733 52.8301 97.882 52.9692C98.1428 53.143 98.6122 53.23 99.2816 53.23H101.333C102.003 53.23 102.464 53.143 102.724 52.9692C102.933 52.8301 103.081 52.6649 103.168 52.4736C103.255 52.2911 103.298 52.0911 103.298 51.8825C103.298 51.6477 103.255 51.4391 103.168 51.2652M93.7699 48.405V52.3432L89.536 48.405H88.8579V53.2387H89.536V49.2917L93.7699 53.2387H94.448V48.405H93.7699ZM85.8238 49.5265C85.65 49.0744 85.3718 48.7614 84.9632 48.5789C84.685 48.4571 84.3372 48.3963 83.9199 48.3963H81.8595C81.4422 48.3963 81.0945 48.4571 80.8163 48.5789C80.4164 48.7614 80.1295 49.0744 79.9556 49.5265C79.8078 49.9177 79.7383 50.3437 79.7383 50.8218C79.7383 51.3 79.8078 51.726 79.9556 52.1172C80.1208 52.5606 80.399 52.8735 80.8163 53.0561C81.0945 53.1778 81.4422 53.2387 81.8595 53.2387H83.9199C84.3372 53.2387 84.685 53.1778 84.9632 53.0561C85.3718 52.8735 85.6587 52.5606 85.8238 52.1172C85.9629 51.726 86.0412 51.2913 86.0412 50.8218C86.0412 50.3524 85.9716 49.9177 85.8238 49.5265ZM85.2588 51.7607C85.0849 52.3258 84.6502 52.6127 83.9373 52.6127H81.8508C81.1379 52.6127 80.6946 52.3258 80.5294 51.7607C80.4599 51.5173 80.4251 51.1956 80.4251 50.8131C80.4251 50.4306 80.4599 50.1089 80.5294 49.8655C80.6946 49.3004 81.1379 49.0135 81.8508 49.0135H83.9373C84.6502 49.0135 85.0936 49.3004 85.2588 49.8655C85.3283 50.1089 85.3631 50.4219 85.3631 50.8131C85.3631 51.2043 85.3283 51.5173 85.2588 51.7607ZM76.2 53.23H76.8868V48.3963H76.2V53.23ZM67.7584 48.3963V49.0135H70.2361V53.23H70.9142V49.0135H73.3832V48.3963H67.7497H67.7584ZM65.3503 49.3613C65.2286 49.1179 65.046 48.9005 64.7765 48.7266C64.4461 48.5093 63.8463 48.3963 62.9856 48.3963H59.8646V53.23H60.5427V51.9085H62.9856C63.8115 51.9085 64.4114 51.7955 64.7852 51.5695C65.0373 51.413 65.2286 51.2043 65.3503 50.9348C65.4633 50.7001 65.5154 50.4306 65.5154 50.135C65.5154 49.8655 65.4633 49.6134 65.3503 49.37V49.3613ZM64.5939 50.8131C64.4461 50.987 64.2201 51.1174 63.9071 51.2043C63.7246 51.2478 63.4637 51.2739 63.1247 51.2739H60.5514V49.0222H63.229C63.5855 49.0222 63.8202 49.0396 63.9332 49.0657C64.2201 49.1266 64.4374 49.2483 64.5852 49.4308C64.7417 49.6221 64.8286 49.8568 64.8373 50.1437C64.8286 50.4045 64.7504 50.6306 64.5939 50.8218V50.8131ZM56.8131 49.5178C56.6392 49.0657 56.361 48.7527 55.9524 48.5702C55.6742 48.4484 55.3265 48.3876 54.9092 48.3876H52.8488C52.4315 48.3876 52.0837 48.4484 51.8055 48.5702C51.4056 48.7527 51.1187 49.0657 50.9449 49.5178C50.7971 49.909 50.7275 50.335 50.7275 50.8131C50.7275 51.2913 50.7971 51.7173 50.9449 52.1085C51.11 52.5519 51.3882 52.8648 51.8055 53.0474C52.0837 53.1691 52.4315 53.23 52.8488 53.23H54.9092C55.3265 53.23 55.6742 53.1691 55.9524 53.0474C56.361 52.8648 56.6479 52.5519 56.8131 52.1085C56.9522 51.7173 57.0304 51.2826 57.0304 50.8131C57.0304 50.3437 56.9609 49.909 56.8131 49.5178ZM56.2393 51.752C56.0654 52.3171 55.6307 52.604 54.9179 52.604H52.8314C52.1185 52.604 51.6751 52.3171 51.51 51.752C51.4404 51.5086 51.4056 51.187 51.4056 50.8044C51.4056 50.4219 51.4404 50.1002 51.51 49.8568C51.6751 49.2917 52.1185 49.0048 52.8314 49.0048H54.9179C55.6307 49.0048 56.0741 49.2917 56.2393 49.8568C56.3089 50.1002 56.3436 50.4132 56.3436 50.8044C56.3436 51.1957 56.3089 51.5086 56.2393 51.752ZM45.4765 48.3876L43.1553 50.9522L40.8341 48.3876H39.9735L42.8163 51.526V53.2126H43.4857V51.526L46.3285 48.3876H45.4679H45.4765ZM36.8351 48.3876L34.253 52.4388L31.671 48.3876H30.9929V53.2213H31.671V49.6743L33.9401 53.2213H34.566L36.8351 49.683V53.2213H37.5132V48.3876H36.8351ZM25.881 49.5091C25.7159 49.057 25.429 48.744 25.0204 48.5615C24.7509 48.4398 24.4031 48.3789 23.9771 48.3789H20.3519V53.2126H23.9771C24.3944 53.2126 24.7422 53.1517 25.0204 53.03C25.429 52.8474 25.7159 52.5345 25.881 52.0911C26.0201 51.6999 26.0984 51.2652 26.0984 50.7957C26.0984 50.3263 26.0288 49.8916 25.881 49.5004V49.5091ZM25.3159 51.7433C25.1508 52.3084 24.7074 52.5953 23.9945 52.5953H21.03V48.9962H23.9945C24.7074 48.9962 25.1508 49.283 25.3159 49.8481C25.3855 50.0916 25.4203 50.4045 25.4203 50.7957C25.4203 51.187 25.3855 51.4999 25.3159 51.7433ZM16.7179 48.3789V52.3171L12.4841 48.3789H11.806V53.2126H12.4841V49.2657L16.7179 53.2126H17.396V48.3789H16.7179ZM8.06772 53.2126H8.75452V48.3789H8.06772V53.2126ZM5.19012 49.0048V48.3789H0.834591C0.582475 48.3789 0.373829 48.4571 0.226037 48.6136C0.0695512 48.7701 0 48.9701 0 49.2135V53.2039H0.6868V51.1H5.19012V50.4828H0.6868V49.2222C0.6868 49.0657 0.765043 48.9875 0.921529 48.9875H5.19012V49.0048Z" fill="url(#paint2_linear_1426_20287)"/>
  <mask id="mask1_1426_20287" style="mask-type:luminance" maskUnits="userSpaceOnUse" x="0" y="0" width="104" height="47">
    <path d="M19.6381 20.0041V28.3066H0.0078125V20.0041H19.6381ZM56.8296 0.0086922H57.1339H59.2204H68.5747V46.4676H60.2723V12.5536L52.9348 28.3761L44.6324 28.324L37.2949 12.5276V46.4676H28.9925V0.0086922H38.3556H39.3988H40.7376L48.7793 15.3356L56.8209 0.0086922H56.8296ZM78.416 38.1565H95.0383V8.30245H78.416V38.1565ZM95.0383 46.4589H70.1135V0H103.341V46.4589H95.0383ZM0.0165047 30.0018H8.31895V46.5459H0.0165047V30.0018ZM0.0165047 0H27.445V8.30245H8.32765V18.3089H0.0251969V0H0.0165047Z" fill="white"/>
  </mask>
  <g mask="url(#mask1_1426_20287)">
    <path d="M103.332 0H0.0078125V46.5459H103.332V0Z" fill="url(#paint3_linear_1426_20287)"/>
  </g>
  <path d="M104.488 0.695492L108.635 3.34706L104.488 5.98993V6.68543H109.444V5.98993H105.81L109.444 3.66003V3.0167L105.818 0.695492H109.444V0H104.488V0.695492ZM105.645 7.69389C105.184 7.86776 104.862 8.16335 104.68 8.57195C104.558 8.85884 104.497 9.21528 104.497 9.64127V11.7451C104.497 12.1711 104.558 12.5276 104.68 12.8145C104.862 13.2318 105.184 13.5186 105.645 13.6925C106.044 13.8403 106.488 13.9186 106.966 13.9186C107.444 13.9186 107.887 13.8403 108.287 13.6925C108.739 13.5273 109.061 13.2318 109.252 12.8145C109.383 12.5276 109.444 12.1711 109.444 11.7451V9.64127C109.444 9.21528 109.383 8.85884 109.252 8.57195C109.061 8.15466 108.748 7.85907 108.287 7.69389C107.887 7.5461 107.444 7.47655 106.966 7.47655C106.488 7.47655 106.044 7.5461 105.645 7.69389ZM107.94 8.27637C108.522 8.45024 108.818 8.90231 108.818 9.63258V11.7712C108.818 12.5015 108.522 12.9536 107.94 13.1274C107.688 13.197 107.366 13.2318 106.966 13.2318C106.566 13.2318 106.244 13.197 105.992 13.1274C105.41 12.9536 105.123 12.5015 105.123 11.7712V9.63258C105.123 8.90231 105.41 8.45024 105.992 8.27637C106.244 8.20682 106.566 8.17204 106.966 8.17204C107.366 8.17204 107.688 8.20682 107.94 8.27637ZM105.871 15.2052C105.375 15.4052 105.132 15.8399 105.132 16.5093V18.6479C105.132 19.3782 105.419 19.8302 106.001 20.0041C106.253 20.0737 106.575 20.0997 106.975 20.0997C107.375 20.0997 107.696 20.065 107.94 20.0041C108.522 19.8302 108.818 19.3869 108.818 18.6653V16.5093C108.818 15.8399 108.566 15.3965 108.07 15.2052V14.5097C108.174 14.5445 108.253 14.5619 108.296 14.5793C108.757 14.7531 109.079 15.0487 109.261 15.4573C109.383 15.7442 109.444 16.1007 109.444 16.5267V18.6305C109.444 19.0565 109.383 19.4129 109.261 19.6998C109.079 20.1171 108.757 20.404 108.305 20.5779C107.905 20.7257 107.462 20.8039 106.983 20.8039C106.505 20.8039 106.062 20.7344 105.662 20.5779C105.21 20.4127 104.888 20.1171 104.697 19.6998C104.567 19.4129 104.506 19.0565 104.506 18.6305V16.5267C104.506 16.1007 104.567 15.7442 104.697 15.4573C104.888 15.0313 105.21 14.7358 105.662 14.5793C105.714 14.5619 105.784 14.5358 105.879 14.5097V15.2052H105.871ZM109.444 21.9167V21.2125H108.748V21.9167H109.444Z" fill="url(#paint4_linear_1426_20287)"/>
  <path d="M103.168 51.2565C103.072 51.0479 102.924 50.8827 102.733 50.761C102.437 50.5871 101.977 50.4915 101.333 50.4915H99.0295C98.8122 50.4915 98.6383 50.4741 98.5079 50.448C98.2992 50.3958 98.1515 50.3089 98.0558 50.1959C97.9602 50.0655 97.8993 49.9264 97.8906 49.7525C97.8906 49.5612 97.9515 49.4048 98.0558 49.283C98.1515 49.1613 98.2906 49.0831 98.4818 49.0483C98.5601 49.0309 98.7165 49.0222 98.9513 49.0222H101.464C101.698 49.0222 101.855 49.0309 101.933 49.0483C102.124 49.0918 102.264 49.17 102.359 49.283C102.464 49.4048 102.516 49.5612 102.524 49.7438H103.211C103.211 49.5352 103.168 49.3352 103.081 49.1439C102.994 48.9527 102.846 48.7875 102.637 48.6484C102.377 48.4745 101.907 48.3876 101.246 48.3876H99.1947C98.5253 48.3876 98.0558 48.4745 97.795 48.6484C97.5951 48.7875 97.4473 48.9527 97.3603 49.1439C97.2734 49.3265 97.2299 49.5265 97.2299 49.7438C97.2299 49.9698 97.2734 50.1785 97.3603 50.3611C97.456 50.5697 97.6038 50.7349 97.8037 50.8566C98.0906 51.0305 98.5601 51.1261 99.2034 51.1261H101.507C101.733 51.1261 101.898 51.1435 102.02 51.1783C102.229 51.2304 102.377 51.3174 102.472 51.4304C102.568 51.5521 102.629 51.6999 102.629 51.8738C102.629 52.065 102.568 52.2215 102.464 52.3432C102.368 52.4562 102.22 52.5345 102.038 52.5779C101.959 52.5953 101.803 52.604 101.568 52.604H99.0469C98.8122 52.604 98.6644 52.5953 98.5861 52.5779C98.3949 52.5345 98.2558 52.4562 98.1601 52.3432C98.0558 52.2128 97.995 52.065 97.9863 51.8738H97.3082C97.3082 52.0911 97.3516 52.2911 97.4386 52.4736C97.5255 52.6649 97.6733 52.8301 97.882 52.9692C98.1428 53.143 98.6122 53.23 99.2816 53.23H101.333C102.003 53.23 102.464 53.143 102.724 52.9692C102.933 52.8301 103.081 52.6649 103.168 52.4736C103.255 52.2911 103.298 52.0911 103.298 51.8825C103.298 51.6477 103.255 51.4391 103.168 51.2652M93.7699 48.405V52.3432L89.536 48.405H88.8579V53.2387H89.536V49.2917L93.7699 53.2387H94.448V48.405H93.7699ZM85.8238 49.5265C85.65 49.0744 85.3718 48.7614 84.9632 48.5789C84.685 48.4571 84.3372 48.3963 83.9199 48.3963H81.8595C81.4422 48.3963 81.0945 48.4571 80.8163 48.5789C80.4164 48.7614 80.1295 49.0744 79.9556 49.5265C79.8078 49.9177 79.7383 50.3437 79.7383 50.8218C79.7383 51.3 79.8078 51.726 79.9556 52.1172C80.1208 52.5606 80.399 52.8735 80.8163 53.0561C81.0945 53.1778 81.4422 53.2387 81.8595 53.2387H83.9199C84.3372 53.2387 84.685 53.1778 84.9632 53.0561C85.3718 52.8735 85.6587 52.5606 85.8238 52.1172C85.9629 51.726 86.0412 51.2913 86.0412 50.8218C86.0412 50.3524 85.9716 49.9177 85.8238 49.5265ZM85.2588 51.7607C85.0849 52.3258 84.6502 52.6127 83.9373 52.6127H81.8508C81.1379 52.6127 80.6946 52.3258 80.5294 51.7607C80.4599 51.5173 80.4251 51.1956 80.4251 50.8131C80.4251 50.4306 80.4599 50.1089 80.5294 49.8655C80.6946 49.3004 81.1379 49.0135 81.8508 49.0135H83.9373C84.6502 49.0135 85.0936 49.3004 85.2588 49.8655C85.3283 50.1089 85.3631 50.4219 85.3631 50.8131C85.3631 51.2043 85.3283 51.5173 85.2588 51.7607ZM76.2 53.23H76.8868V48.3963H76.2V53.23ZM67.7584 48.3963V49.0135H70.2361V53.23H70.9142V49.0135H73.3832V48.3963H67.7497H67.7584ZM65.3503 49.3613C65.2286 49.1179 65.046 48.9005 64.7765 48.7266C64.4461 48.5093 63.8463 48.3963 62.9856 48.3963H59.8646V53.23H60.5427V51.9085H62.9856C63.8115 51.9085 64.4114 51.7955 64.7852 51.5695C65.0373 51.413 65.2286 51.2043 65.3503 50.9348C65.4633 50.7001 65.5154 50.4306 65.5154 50.135C65.5154 49.8655 65.4633 49.6134 65.3503 49.37V49.3613ZM64.5939 50.8131C64.4461 50.987 64.2201 51.1174 63.9071 51.2043C63.7246 51.2478 63.4637 51.2739 63.1247 51.2739H60.5514V49.0222H63.229C63.5855 49.0222 63.8202 49.0396 63.9332 49.0657C64.2201 49.1266 64.4374 49.2483 64.5852 49.4308C64.7417 49.6221 64.8286 49.8568 64.8373 50.1437C64.8286 50.4045 64.7504 50.6306 64.5939 50.8218V50.8131ZM56.8131 49.5178C56.6392 49.0657 56.361 48.7527 55.9524 48.5702C55.6742 48.4484 55.3265 48.3876 54.9092 48.3876H52.8488C52.4315 48.3876 52.0837 48.4484 51.8055 48.5702C51.4056 48.7527 51.1187 49.0657 50.9449 49.5178C50.7971 49.909 50.7275 50.335 50.7275 50.8131C50.7275 51.2913 50.7971 51.7173 50.9449 52.1085C51.11 52.5519 51.3882 52.8648 51.8055 53.0474C52.0837 53.1691 52.4315 53.23 52.8488 53.23H54.9092C55.3265 53.23 55.6742 53.1691 55.9524 53.0474C56.361 52.8648 56.6479 52.5519 56.8131 52.1085C56.9522 51.7173 57.0304 51.2826 57.0304 50.8131C57.0304 50.3437 56.9609 49.909 56.8131 49.5178ZM56.2393 51.752C56.0654 52.3171 55.6307 52.604 54.9179 52.604H52.8314C52.1185 52.604 51.6751 52.3171 51.51 51.752C51.4404 51.5086 51.4056 51.187 51.4056 50.8044C51.4056 50.4219 51.4404 50.1002 51.51 49.8568C51.6751 49.2917 52.1185 49.0048 52.8314 49.0048H54.9179C55.6307 49.0048 56.0741 49.2917 56.2393 49.8568C56.3089 50.1002 56.3436 50.4132 56.3436 50.8044C56.3436 51.1957 56.3089 51.5086 56.2393 51.752ZM45.4765 48.3876L43.1553 50.9522L40.8341 48.3876H39.9735L42.8163 51.526V53.2126H43.4857V51.526L46.3285 48.3876H45.4679H45.4765ZM36.8351 48.3876L34.253 52.4388L31.671 48.3876H30.9929V53.2213H31.671V49.6743L33.9401 53.2213H34.566L36.8351 49.683V53.2213H37.5132V48.3876H36.8351ZM25.881 49.5091C25.7159 49.057 25.429 48.744 25.0204 48.5615C24.7509 48.4398 24.4031 48.3789 23.9771 48.3789H20.3519V53.2126H23.9771C24.3944 53.2126 24.7422 53.1517 25.0204 53.03C25.429 52.8474 25.7159 52.5345 25.881 52.0911C26.0201 51.6999 26.0984 51.2652 26.0984 50.7957C26.0984 50.3263 26.0288 49.8916 25.881 49.5004V49.5091ZM25.3159 51.7433C25.1508 52.3084 24.7074 52.5953 23.9945 52.5953H21.03V48.9962H23.9945C24.7074 48.9962 25.1508 49.283 25.3159 49.8481C25.3855 50.0916 25.4203 50.4045 25.4203 50.7957C25.4203 51.187 25.3855 51.4999 25.3159 51.7433ZM16.7179 48.3789V52.3171L12.4841 48.3789H11.806V53.2126H12.4841V49.2657L16.7179 53.2126H17.396V48.3789H16.7179ZM8.06772 53.2126H8.75452V48.3789H8.06772V53.2126ZM5.19012 49.0048V48.3789H0.834591C0.582475 48.3789 0.373829 48.4571 0.226037 48.6136C0.0695512 48.7701 0 48.9701 0 49.2135V53.2039H0.6868V51.1H5.19012V50.4828H0.6868V49.2222C0.6868 49.0657 0.765043 48.9875 0.921529 48.9875H5.19012V49.0048Z" fill="url(#paint5_linear_1426_20287)"/>
  <defs>
    <linearGradient id="paint0_linear_1426_20287" x1="-2.26521" y1="-4.90025" x2="100.938" y2="60.5051" gradientUnits="userSpaceOnUse">
      <stop stop-color="#018FFD"/>
      <stop offset="1" stop-color="#070C84"/>
    </linearGradient>
    <linearGradient id="paint1_linear_1426_20287" x1="104.379" y1="-2.30735" x2="111.288" y2="-1.86138" gradientUnits="userSpaceOnUse">
      <stop stop-color="#018FFD"/>
      <stop offset="1" stop-color="#070C84"/>
    </linearGradient>
    <linearGradient id="paint2_linear_1426_20287" x1="-2.27245" y1="47.8673" x2="1.55082" y2="71.0685" gradientUnits="userSpaceOnUse">
      <stop stop-color="#018FFD"/>
      <stop offset="1" stop-color="#070C84"/>
    </linearGradient>
    <linearGradient id="paint3_linear_1426_20287" x1="-2.26521" y1="-4.90025" x2="100.938" y2="60.5051" gradientUnits="userSpaceOnUse">
      <stop stop-color="#018FFD"/>
      <stop offset="1" stop-color="#070C84"/>
    </linearGradient>
    <linearGradient id="paint4_linear_1426_20287" x1="104.379" y1="-2.30735" x2="111.288" y2="-1.86138" gradientUnits="userSpaceOnUse">
      <stop stop-color="#018FFD"/>
      <stop offset="1" stop-color="#070C84"/>
    </linearGradient>
    <linearGradient id="paint5_linear_1426_20287" x1="-2.27245" y1="47.8673" x2="1.55082" y2="71.0685" gradientUnits="userSpaceOnUse">
      <stop stop-color="#018FFD"/>
      <stop offset="1" stop-color="#070C84"/>
    </linearGradient>
  </defs>
</svg>